<svg width="200" height="200" viewBox="0 0 500 500" fill="none" xmlns="http://www.w3.org/2000/svg">
  <path d="M250 50 
           C280 50 310 140 335 175 
           C340 180 390 155 440 145 
           C460 140 465 160 455 180 
           C440 210 425 350 415 385 
           C390 440 110 440 85 385 
           C75 350 60 210 45 180 
           C35 160 40 140 60 145 
           C110 155 160 180 165 175 
           C190 140 220 50 250 50Z" 
    fill="#FFFCE6" 
    stroke="#8C8679" 
    stroke-width="16" 
    stroke-linecap="round" 
    stroke-linejoin="round" />

  <path d="M150 245 C170 270 210 270 230 245" stroke="#8C8679" stroke-width="13" stroke-linecap="round" fill="none"/>
  <path d="M275 245 C295 270 335 270 355 245" stroke="#8C8679" stroke-width="13" stroke-linecap="round" fill="none"/>

  <path d="M220 295 C235 315 265 315 280 295" stroke="#8C8679" stroke-width="13" stroke-linecap="round" fill="none"/>
</svg>
